<svg id="Layer_1" data-name="Layer 1" xmlns="http://www.w3.org/2000/svg" viewBox="0 0 555.13 192.24"><defs><style>.cls-1,.cls-5{fill:none;stroke-miterlimit:10;stroke-width:2px;}.cls-1{stroke:#6ab5d5;}.cls-2{font-size:86.62px;fill:#fff;font-family:Calibri-Bold, Calibri;font-weight:700;letter-spacing:-0.05em;}.cls-3{letter-spacing:-0.08em;}.cls-4{letter-spacing:-0.02em;}.cls-5{stroke:#fff;}</style></defs><title>simona2</title><ellipse class="cls-1" cx="451.61" cy="96.12" rx="29.42" ry="64.89"/><ellipse class="cls-1" cx="471.64" cy="272.97" rx="25.99" ry="75.16" transform="translate(-8.95 387.41) rotate(-62.37)"/><ellipse class="cls-1" cx="491.35" cy="56.01" rx="7.4" ry="6.27"/><path class="cls-1" d="M537.39,236.8c-3.2-4.18-10-5.93-19.17-5.55a7.28,7.28,0,0,0-7.13-4.67c-4.09,0-7.4,2.81-7.4,6.27,0,.13,0,.26,0,.39-14.21,3.07-31.19,9.52-48.11,18.83-36.31,20-58.57,45.52-49.72,57.07,3.05,4,9.42,5.77,17.93,5.59,0-3.45,3.32-6.25,7.4-6.25a7.3,7.3,0,0,1,7.06,4.48c14.46-3,31.95-9.51,49.38-19.09C524,273.89,546.24,248.34,537.39,236.8Z" transform="translate(-20.03 -176.85)"/><ellipse class="cls-1" cx="411.52" cy="137.9" rx="7.4" ry="6.27"/><text class="cls-2" transform="translate(29.8 86.26) scale(1.25 1)">D<tspan class="cls-3" x="50.41" y="0">A</tspan><tspan class="cls-4" x="96.29" y="0">VID</tspan><tspan class="cls-4"><tspan x="-23.87" y="60.16">PETRUT</tspan></tspan></text><ellipse class="cls-5" cx="451.61" cy="96.12" rx="102.52" ry="95.12"/></svg>